<svg xmlns="http://www.w3.org/2000/svg" height="150" width="150" version="1.0" viewBox="0 0 1600 1600">
    <defs>
    <linearGradient id="gradient-x" x1="0%" y1="0%" x2="100%" y2="0%">
      <stop offset="0%" stop-color="#F05033" />
      <stop offset="50%" stop-color="#9F50A0" />
      <stop offset="100%" stop-color="#40C0F0" />
    </linearGradient>
  </defs>
  
  <path fill="url(#gradient-x)" d="M219.6 230.9c-.9 1.3 1.2 4.3 11.4 16.6 4.2 5.1 18 22.7 30.5 39.1 33.6 43.9 82.3 106.7 131.3 169.3 14.5 18.5 34.9 44.8 45.5 58.6 10.5 13.7 25.9 33.6 34.2 44.2 8.2 10.5 22.5 28.7 31.6 40.5 18.1 23.4 65.2 83.5 82.1 104.8 39.3 49.7 48.8 62.3 48.8 64.6 0 1.5-10.8 16.1-26.7 36.2-6.5 8.1-19.2 24.1-28.3 35.6-20.1 25.5-45.1 56.8-58.7 73.6-16.6 20.5-44.2 54.7-71.8 89-54.7 67.9-88.3 109.5-121.8 151-8.7 10.7-33 40.9-53.9 67-21 26.1-40.8 50.6-44 54.5-3.2 3.8-14 17.3-24 30-10 12.6-21.8 27.3-26.3 32.5-9.9 11.6-12.5 15-12.5 16.1 0 .5 71.9.9 162.9.9h162.9l4.4-5.3c5.9-6.8 13.9-16.9 28.9-36.4 6.7-8.7 24.9-31.9 40.3-51.7 15.5-19.7 30.1-38.4 32.6-41.6s12.6-16.1 22.6-28.7c21.1-26.7 27.2-34.5 45.9-58.8 7.7-9.9 20.7-26.6 29-37 8.3-10.5 21.3-27.1 29-37 7.6-9.9 17.3-22.3 21.5-27.5s15.9-20.1 26-33c10-12.9 20.5-26.1 23.3-29.3l5-5.8 2.3 2.3c2.2 2.2 11.8 14.5 38.7 49.3 19.7 25.6 45.9 59.2 58.7 75.5 6.3 8 15.2 19.4 19.8 25.5 12.5 16.1 83 106.6 96.3 123.6 10.2 12.9 62 80 81.2 104.9l7.3 9.5 161.9.3c89 .1 162.3-.2 162.7-.6 1-1-2.6-6.2-11.4-16.8-12.6-15.4-26.7-33.2-30.5-38.9-2.3-3.3-6.2-8.5-8.7-11.5s-8.7-10.9-13.7-17.5c-12.6-16.4-19.7-25.3-20.9-26-.5-.3-1-1.4-1-2.3s-1.2-2.8-2.6-4.1c-2.7-2.6-36.2-45.6-52.4-67.1-5.1-6.9-14.5-19-20.8-27-6.4-8-13.1-16.5-15-19-2-2.5-4.4-5.4-5.4-6.5s-3.7-4.5-6.1-7.7c-10-13.3-85.4-111.2-95.4-123.8-4.6-5.8-15-19.3-23.1-30-8.2-10.7-23.6-30.8-34.3-44.5-45.2-57.9-91.9-118.6-98.3-127.9-1.6-2.2-6.2-8.4-10.4-13.6-4.1-5.2-8.1-10.9-9-12.7-1.5-3.2-1.5-3.2 3.8-10.5 2.9-4 17.3-22.4 32-40.8 14.6-18.4 29.7-37.6 33.5-42.5 3.8-5 11-14 16-20 9.5-11.4 19.9-24.5 39.6-49.6 14.8-18.9 19.2-24.5 57.4-72.5 17.6-22.1 41.2-51.8 52.5-66s26.8-33.7 34.4-43.4c17-21.3 25.6-32.2 36.7-46.3 4.6-5.9 11.2-14.2 14.7-18.5 3.4-4.2 7.7-10 9.6-12.7 1.8-2.8 7.5-9.9 12.5-15.9 5-5.9 9.1-11.2 9.1-11.8 0-.5 1.7-2.8 3.9-5.1 5.6-6.1 13.4-15.6 23.6-28.7 5-6.3 13.3-16.6 18.5-22.8 9.9-11.8 12.8-15.8 12-16.5-.3-.2-73-.7-161.7-1l-161.2-.6-8.4 10.2c-4.6 5.6-18 22.6-29.7 37.7-19.4 24.8-30.1 38.6-69.5 89-28.4 36.3-42.4 54.2-51 65-9.1 11.4-30.9 39.3-52.4 67-27.4 35.3-42.7 54-44.4 54.6-3.4 1.1-.7 4.3-74.4-89.6-15.3-19.5-37.7-48.3-49.8-63.9-19-24.5-48.9-62.7-107-136.6-7.8-9.9-16.2-20.9-18.7-24.4-2.6-3.5-5.7-7-6.9-7.9-2.1-1.4-18.3-1.6-164-2-119.8-.3-161.8-.2-162.3.7z"/>
</svg>